<svg width="29" height="28" viewBox="0 0 29 28" fill="none" xmlns="http://www.w3.org/2000/svg">
<path d="M26.1668 25.6666H2.8335" stroke="#F2F2F2" stroke-width="1.5" stroke-linecap="round"/>
<g opacity="0.5">
<path d="M25 25.6666V16.9166C25 15.9502 24.2165 15.1666 23.25 15.1666H19.75C18.7835 15.1666 18 15.9502 18 16.9166V25.6666" fill="#F2F2F2"/>
<path d="M25 25.6666V16.9166C25 15.9502 24.2165 15.1666 23.25 15.1666H19.75C18.7835 15.1666 18 15.9502 18 16.9166V25.6666" stroke="#F2F2F2" stroke-width="1.5"/>
</g>
<path d="M18 25.6667V5.83337C18 4.18346 18 3.3585 17.4875 2.84594C16.9749 2.33337 16.1499 2.33337 14.5 2.33337C12.8501 2.33337 12.0251 2.33337 11.5126 2.84594C11 3.3585 11 4.18346 11 5.83337V25.6667" fill="#F2F2F2"/>
<path d="M18 25.6667V5.83337C18 4.18346 18 3.3585 17.4875 2.84594C16.9749 2.33337 16.1499 2.33337 14.5 2.33337C12.8501 2.33337 12.0251 2.33337 11.5126 2.84594C11 3.3585 11 4.18346 11 5.83337V25.6667" stroke="#F2F2F2" stroke-width="1.5"/>
<g opacity="0.5">
<path d="M11 25.6667V11.0834C11 10.1169 10.2165 9.33337 9.25 9.33337H5.75C4.7835 9.33337 4 10.1169 4 11.0834V25.6667" fill="#F2F2F2"/>
<path d="M11 25.6667V11.0834C11 10.1169 10.2165 9.33337 9.25 9.33337H5.75C4.7835 9.33337 4 10.1169 4 11.0834V25.6667" stroke="#F2F2F2" stroke-width="1.5"/>
</g>
</svg>
