<svg width="29" height="28" viewBox="0 0 29 28" fill="none" xmlns="http://www.w3.org/2000/svg">
<path d="M26.1668 25.6667H2.8335" stroke="#F2F2F2" stroke-width="1.5" stroke-linecap="round"/>
<path opacity="0.5" d="M25 25.6667V16.9167C25 15.9503 24.2165 15.1667 23.25 15.1667H19.75C18.7835 15.1667 18 15.9503 18 16.9167V25.6667" stroke="#F2F2F2" stroke-width="1.5"/>
<path d="M18 25.6666V5.83325C18 4.18334 18 3.35838 17.4875 2.84582C16.9749 2.33325 16.1499 2.33325 14.5 2.33325C12.8501 2.33325 12.0251 2.33325 11.5126 2.84582C11 3.35838 11 4.18334 11 5.83325V25.6666" stroke="#F2F2F2" stroke-width="1.5"/>
<path opacity="0.5" d="M11 25.6666V11.0833C11 10.1168 10.2165 9.33325 9.25 9.33325H5.75C4.7835 9.33325 4 10.1168 4 11.0833V25.6666" stroke="#F2F2F2" stroke-width="1.5"/>
</svg>
