<svg width="24" height="24" viewBox="0 0 24 24" fill="none" xmlns="http://www.w3.org/2000/svg">
<path d="M12.001 20.2033C11.6511 20.2033 11.3526 20.079 11.1053 19.8304C10.858 19.5819 10.7344 19.283 10.7344 18.934C10.7344 18.5887 10.8585 18.291 11.1068 18.0409C11.3551 17.7908 11.6535 17.6658 12.0022 17.6658C12.3541 17.6658 12.6527 17.7917 12.898 18.0437C13.1432 18.2956 13.2659 18.5949 13.2659 18.9415C13.2659 19.2881 13.1425 19.5851 12.8959 19.8324C12.6492 20.0797 12.3509 20.2033 12.001 20.2033ZM12.001 13.2658C11.6511 13.2658 11.3526 13.1416 11.1053 12.8934C10.858 12.6451 10.7344 12.3466 10.7344 11.998C10.7344 11.6461 10.8585 11.3475 11.1068 11.1022C11.3551 10.8569 11.6535 10.7343 12.0022 10.7343C12.3541 10.7343 12.6527 10.8576 12.898 11.1042C13.1432 11.3509 13.2659 11.6492 13.2659 11.9991C13.2659 12.349 13.1425 12.6476 12.8959 12.8949C12.6492 13.1421 12.3509 13.2658 12.001 13.2658ZM12.001 6.33427C11.6511 6.33427 11.3526 6.20937 11.1053 5.95957C10.858 5.70979 10.7344 5.40952 10.7344 5.05877C10.7344 4.708 10.8585 4.40898 11.1068 4.1617C11.3551 3.91441 11.6535 3.79077 12.0022 3.79077C12.3541 3.79077 12.6527 3.9156 12.898 4.16525C13.1432 4.41488 13.2659 4.71508 13.2659 5.06585C13.2659 5.41661 13.1425 5.7157 12.8959 5.96312C12.6492 6.21055 12.3509 6.33427 12.001 6.33427Z" fill="white"/>
</svg>
