<svg width="29" height="28" viewBox="0 0 29 28" fill="none" xmlns="http://www.w3.org/2000/svg">
<path d="M11.1833 24.2333V20.6555C11.1832 19.7455 11.9251 19.006 12.8444 18.9999H16.2114C17.135 18.9999 17.8838 19.7411 17.8838 20.6555V24.2445C17.8835 25.0171 18.5065 25.6486 19.2867 25.6667H21.5314C23.7691 25.6667 25.5832 23.8708 25.5832 21.6555V11.4775C25.5712 10.606 25.1579 9.78762 24.4608 9.25525L16.7838 3.13289C15.4389 2.06687 13.5271 2.06687 12.1822 3.13289L4.53887 9.26636C3.83914 9.79657 3.42512 10.6163 3.4165 11.4886V21.6555C3.4165 23.8708 5.23053 25.6667 7.46823 25.6667H9.71296C10.5126 25.6667 11.1608 25.025 11.1608 24.2333" stroke="#F2F2F2" stroke-width="1.5" stroke-linecap="round" stroke-linejoin="round"/>
</svg>
