<svg width="28" height="28" viewBox="0 0 28 28" fill="none" xmlns="http://www.w3.org/2000/svg">
<path d="M11.1476 24.327C11.7301 25.0581 12.5855 25.5313 13.5244 25.6418C14.4634 25.7523 15.4085 25.491 16.1506 24.9157C16.3789 24.7456 16.5843 24.5478 16.7619 24.327M4.08446 16.0849V15.8294C4.12194 15.0735 4.36419 14.3412 4.78624 13.7078C5.48875 12.947 5.96965 12.0146 6.1785 11.0086C6.1785 10.231 6.1785 9.44234 6.24641 8.66478C6.5973 4.9214 10.2987 2.33325 13.9547 2.33325H14.0453C17.7014 2.33325 21.4027 4.9214 21.7649 8.66478C21.8328 9.44234 21.7649 10.231 21.8215 11.0086C22.0332 12.0169 22.5136 12.9522 23.2138 13.7189C23.639 14.3467 23.8816 15.0764 23.9156 15.8294V16.0738C23.9408 17.0893 23.5911 18.0795 22.9308 18.8619C22.0583 19.7766 20.8743 20.3457 19.603 20.4614C15.875 20.8613 12.1137 20.8613 8.38572 20.4614C7.11583 20.3407 5.93355 19.7725 5.0579 18.8619C4.40783 18.0789 4.06278 17.0946 4.08446 16.0849Z" stroke="#F2F2F2" stroke-width="1.5" stroke-linecap="round" stroke-linejoin="round"/>
</svg>
