<svg width="29" height="28" viewBox="0 0 29 28" fill="none" xmlns="http://www.w3.org/2000/svg">
<path d="M22.2561 15.4637C22.9836 15.4637 23.5817 16.0554 23.4908 16.7775C23.2449 18.734 22.4549 20.5822 21.2107 22.1119C19.9665 23.6417 18.3179 24.7916 16.4525 25.4309C14.5872 26.0702 12.5798 26.1732 10.6588 25.7282C8.73782 25.2832 6.98023 24.3081 5.58593 22.9138C4.19163 21.5194 3.21659 19.7618 2.77169 17.8408C2.32679 15.9197 2.42989 13.9124 3.06926 12.0471C3.70863 10.1817 4.85861 8.53324 6.38842 7.28907C7.91824 6.0449 9.76649 5.25499 11.723 5.00916C12.4441 4.91828 13.0368 5.5164 13.0368 6.24393V13.1586C13.0368 13.7699 13.2796 14.3561 13.7117 14.7884C14.1439 15.2206 14.7301 15.4636 15.3414 15.4637H22.2561Z" fill="#F2F2F2"/>
<path fill-rule="evenodd" clip-rule="evenodd" d="M11.8868 6.87596C11.8868 6.49182 11.5908 6.26883 11.322 6.30243C9.51393 6.52959 7.80587 7.25959 6.39208 8.4094C4.97829 9.55921 3.91552 11.0827 3.32464 12.8066C2.73375 14.5304 2.63846 16.3856 3.04961 18.1609C3.46076 19.9363 4.36184 21.5606 5.65037 22.8492C6.93891 24.1379 8.56319 25.039 10.3385 25.4503C12.1138 25.8615 13.9689 25.7663 15.6927 25.1755C17.4166 24.5846 18.9401 23.5219 20.09 22.1082C21.2398 20.6944 21.9699 18.9863 22.1971 17.1782C22.2312 16.909 22.0077 16.6134 21.6241 16.6134H14.808C14.0332 16.6134 13.2902 16.3057 12.7424 15.7578C12.1946 15.21 11.8868 14.467 11.8868 13.6922V6.87596ZM11.1599 5.01464C12.3138 4.86956 13.1853 5.82529 13.1853 6.87596V13.6922C13.1853 14.1226 13.3562 14.5353 13.6605 14.8397C13.9649 15.144 14.3776 15.3149 14.808 15.3149H21.6241C22.6742 15.3149 23.6304 16.1865 23.4854 17.3403C23.2278 19.3896 22.4004 21.3254 21.0972 22.9276C19.794 24.5299 18.0673 25.7343 16.1136 26.4039C14.1599 27.0735 12.0574 27.1814 10.0454 26.7153C8.03337 26.2493 6.1925 25.2279 4.73215 23.7675C3.27179 22.307 2.25055 20.4661 1.78457 18.454C1.31858 16.4419 1.42656 14.3395 2.09622 12.3857C2.76587 10.4319 3.97033 8.70531 5.57262 7.40216C7.1749 6.09901 9.11071 5.27165 11.1599 5.01416V5.01464Z" fill="#F2F2F2"/>
<path d="M15.5 4.75301C15.5 3.7015 16.3593 2.83174 17.3922 3.02777C19.3946 3.40772 21.2361 4.38163 22.6773 5.82275C24.1184 7.26387 25.0923 9.10544 25.4722 11.1078C25.6683 12.1402 24.798 13 23.747 13H17.4032C16.8984 13 16.4143 12.7995 16.0574 12.4426C15.7005 12.0857 15.5 11.6016 15.5 11.0968V4.75301Z" fill="#F2F2F2"/>
<path fill-rule="evenodd" clip-rule="evenodd" d="M15.5005 4.33177C15.5005 3.00363 16.6122 1.76047 18.0814 2.03956C20.1579 2.43358 22.0676 3.44358 23.5621 4.9381C25.0566 6.43262 26.0665 8.34243 26.4605 10.4189C26.7392 11.8878 25.497 13 24.1684 13H17.977C17.6517 13.0001 17.3296 12.936 17.0291 12.8116C16.7286 12.6872 16.4555 12.5048 16.2255 12.2748C15.9955 12.0448 15.813 11.7718 15.6886 11.4713C15.5641 11.1708 15.5 10.8487 15.5 10.5234L15.5005 4.33177ZM17.8506 3.25579C17.3041 3.15223 16.7385 3.60826 16.7385 4.33177V10.5234C16.7385 10.8519 16.869 11.1669 17.1012 11.3992C17.3335 11.6315 17.6485 11.7619 17.977 11.7619H24.1684C24.8919 11.7619 25.3479 11.1963 25.2439 10.6497C24.8964 8.81752 24.0053 7.13235 22.6868 5.81359C21.3682 4.49483 19.6828 3.60356 17.8506 3.25579Z" fill="#F2F2F2"/>
</svg>
