<svg width="29" height="28" viewBox="0 0 29 28" fill="none" xmlns="http://www.w3.org/2000/svg">
<path d="M22.6932 17.241C22.7681 16.6489 22.2839 16.1134 21.6241 16.1134H14.808C14.1658 16.1134 13.55 15.8584 13.0959 15.4043C12.6419 14.9502 12.3868 14.3344 12.3868 13.6922V6.87596C12.3868 6.21491 11.8504 5.73249 11.26 5.80629L11.2597 5.80633C9.35876 6.04516 7.56298 6.81264 6.0766 8.02149C4.59021 9.23034 3.47288 10.832 2.85165 12.6444C2.23042 14.4568 2.13024 16.4072 2.5625 18.2737C2.99476 20.1402 3.94211 21.848 5.29681 23.2028C6.65151 24.5576 8.3592 25.505 10.2257 25.9374C12.0921 26.3697 14.0425 26.2696 15.8549 25.6485C17.6672 25.0273 19.269 23.91 20.4779 22.4237C21.6867 20.9374 22.4542 19.1418 22.6932 17.241ZM22.6932 17.241L22.1971 17.1782M22.6932 17.241C22.6932 17.2409 22.6932 17.2407 22.6932 17.2406L22.1971 17.1782M22.1971 17.1782C21.9699 18.9863 21.2398 20.6944 20.09 22.1082C18.9401 23.5219 17.4166 24.5846 15.6927 25.1755C13.9689 25.7663 12.1138 25.8615 10.3385 25.4503C8.56319 25.039 6.93891 24.1379 5.65037 22.8492C4.36184 21.5606 3.46076 19.9363 3.04961 18.1609C2.63846 16.3856 2.73375 14.5304 3.32464 12.8066C3.91552 11.0827 4.97829 9.55921 6.39208 8.4094C7.80587 7.25959 9.51393 6.52959 11.322 6.30243C11.5908 6.26883 11.8868 6.49182 11.8868 6.87596V13.6922C11.8868 14.467 12.1946 15.21 12.7424 15.7578C13.2902 16.3057 14.0332 16.6134 14.808 16.6134H21.6241C22.0077 16.6134 22.2312 16.909 22.1971 17.1782ZM11.1213 5.52344L11.2223 5.51074C12.0301 5.40916 12.6853 6.0762 12.6853 6.87596V13.6922C12.6853 14.2552 12.9089 14.7951 13.307 15.1932C13.7051 15.5913 14.245 15.8149 14.808 15.8149H21.6241C22.4234 15.8149 23.0908 16.4702 22.9893 17.278L22.9893 17.278C22.7434 19.2344 21.9534 21.0825 20.7093 22.6121C19.4651 24.1418 17.8167 25.2917 15.9515 25.9309C14.0863 26.5702 12.0791 26.6732 10.1582 26.2282C8.23737 25.7833 6.4799 24.8082 5.08571 23.4139C3.69152 22.0197 2.71654 20.2621 2.27167 18.3412C1.8268 16.4203 1.92989 14.4131 2.5692 12.5478C3.20852 10.6826 4.35841 9.03418 5.8881 7.79007C7.39146 6.56738 9.20235 5.78341 11.1213 5.52344Z" stroke="#F2F2F2"/>
<path fill-rule="evenodd" clip-rule="evenodd" d="M15.5005 4.33177C15.5005 3.00363 16.6122 1.76047 18.0814 2.03956C20.1579 2.43358 22.0676 3.44358 23.5621 4.9381C25.0566 6.43262 26.0665 8.34243 26.4605 10.4189C26.7392 11.8878 25.497 13 24.1684 13H17.977C17.6517 13.0001 17.3296 12.936 17.0291 12.8116C16.7286 12.6872 16.4555 12.5048 16.2255 12.2748C15.9955 12.0448 15.813 11.7718 15.6886 11.4713C15.5641 11.1708 15.5 10.8487 15.5 10.5234L15.5005 4.33177ZM17.8506 3.25579C17.3041 3.15223 16.7385 3.60826 16.7385 4.33177V10.5234C16.7385 10.8519 16.869 11.1669 17.1012 11.3992C17.3335 11.6315 17.6485 11.7619 17.977 11.7619H24.1684C24.8919 11.7619 25.3479 11.1963 25.2439 10.6497C24.8964 8.81752 24.0053 7.13235 22.6868 5.81359C21.3682 4.49483 19.6828 3.60356 17.8506 3.25579Z" fill="#F2F2F2"/>
</svg>
