<svg width="29" height="28" viewBox="0 0 29 28" fill="none" xmlns="http://www.w3.org/2000/svg">
<path d="M13.4056 2.67627L13.3986 2.72706L13.2111 4.09206L13.211 4.09231C13.1556 4.4953 12.9999 4.8788 12.7567 5.20466C12.5133 5.53069 12.19 5.78854 11.8164 5.94958C11.4425 6.11072 11.0332 6.1684 10.6295 6.11565C10.2258 6.06292 9.84494 5.9021 9.52387 5.65204L9.52345 5.65171L8.46234 4.82404L8.42011 4.7911L8.38298 4.7525C8.30612 4.67256 8.21648 4.61079 8.11997 4.56921C8.02354 4.52767 7.92127 4.50671 7.81875 4.50671C7.71623 4.50671 7.61396 4.52767 7.51753 4.56921C7.42102 4.61079 7.33138 4.67256 7.25452 4.7525L7.25451 4.7525L6.14896 5.90228C5.8167 6.24783 5.81753 6.81538 6.14837 7.15867L6.18558 7.19728L6.21692 7.2408L7.01273 8.34576C7.01274 8.34577 7.01275 8.34579 7.01276 8.3458C7.25031 8.67561 7.39958 9.0615 7.44846 9.4652C7.49733 9.86887 7.44454 10.2794 7.29422 10.6571C7.14386 11.035 6.90016 11.3691 6.584 11.6247C6.26763 11.8804 5.88994 12.0482 5.48749 12.1085L5.48729 12.1085L4.1734 12.305L4.11826 12.3132H4.0625C3.64082 12.3132 3.25 12.6769 3.25 13.1868V14.8132C3.25 15.3221 3.64124 15.6868 4.0625 15.6868H4.11832L4.17352 15.695L5.48548 15.8914L13.4056 2.67627ZM13.4056 2.67627V2.625M13.4056 2.67627V2.625M13.4056 2.625C13.4056 2.11466 13.7968 1.75 14.2194 1.75H15.7819C16.2019 1.75 16.5931 2.11333 16.5931 2.625V2.67659L16.6001 2.7277L16.789 4.09414L16.789 4.09433C16.8448 4.49715 17.0007 4.88041 17.2441 5.20601C17.4875 5.53178 17.8109 5.78936 18.1844 5.95016C18.5583 6.11106 18.9675 6.16855 19.3711 6.1157C19.7746 6.06286 20.1553 5.90201 20.4762 5.652C20.4762 5.65199 20.4762 5.65198 20.4762 5.65197L21.5387 4.82434L21.5809 4.79142L21.6181 4.75283C21.7729 4.59204 21.9763 4.50743 22.1819 4.50743C22.3876 4.50743 22.591 4.59204 22.7458 4.75283L23.851 5.90228C24.1813 6.24572 24.1821 6.81563 23.8504 7.16134L23.8141 7.19925L23.7833 7.24187L22.9875 8.34542L22.9872 8.34585M13.4056 2.625L22.9872 8.34585M7.01279 19.6542L7.01248 19.6546L6.21665 20.7581L6.18567 20.8011L6.14896 20.8393C5.8167 21.1848 5.81753 21.7538 6.14837 22.0971L6.14896 22.0977L7.25451 23.2475C7.57087 23.5765 8.06682 23.5756 8.38101 23.2481L8.41855 23.209L8.46132 23.1757L9.52379 22.348C9.5238 22.348 9.52381 22.348 9.52382 22.348C9.84474 22.098 10.2254 21.9371 10.6289 21.8843C11.0325 21.8314 11.4417 21.8889 11.8156 22.0498C12.1891 22.2106 12.5125 22.4682 12.7559 22.794C12.9993 23.1196 13.1552 23.5029 13.211 23.9057L13.211 23.9059L13.3999 25.2723L13.4069 25.3234V25.375C13.4069 25.8867 13.7981 26.25 14.2181 26.25H15.7819C16.201 26.25 16.5931 25.8862 16.5931 25.375V25.3234L16.6001 25.2722L16.789 23.9077C16.789 23.9076 16.789 23.9074 16.789 23.9073C16.789 23.9073 16.789 23.9072 16.789 23.9072C16.8446 23.5044 17.0002 23.1211 17.2433 22.7953C17.4867 22.4693 17.81 22.2115 18.1836 22.0504C18.5575 21.8893 18.9668 21.8316 19.3705 21.8843C19.7742 21.9371 20.1551 22.0979 20.4761 22.348L20.4765 22.3483L21.5377 23.176L21.5799 23.2089L21.617 23.2475C21.9334 23.5765 22.4307 23.5756 22.7449 23.2481L22.7455 23.2475L23.8504 22.0983C24.1821 21.7526 24.1813 21.1842 23.851 20.8407L23.8142 20.8024L23.7831 20.7592L22.9873 19.6542C22.9873 19.6542 22.9873 19.6542 22.9872 19.6542C22.7497 19.3244 22.6004 18.9385 22.5515 18.5348C22.5027 18.1311 22.5555 17.7206 22.7058 17.3429C22.8561 16.965 23.0998 16.6309 23.416 16.3753C23.7324 16.1196 24.1101 15.9518 24.5125 15.8915L24.5127 15.8915L25.8266 15.695L25.8817 15.6868H25.9375C26.3592 15.6868 26.75 15.3231 26.75 14.8132V13.1868C26.75 12.6779 26.3588 12.3132 25.9375 12.3132H25.8817L25.8265 12.305L24.5145 12.1086L7.01279 19.6542ZM7.01279 19.6542C7.25039 19.3242 7.39963 18.9381 7.44841 18.5343C7.49718 18.1304 7.44421 17.7198 7.29367 17.342C7.14308 16.9641 6.89912 16.63 6.5827 16.3746C6.26619 16.1191 5.88845 15.9515 5.48602 15.8915L7.01279 19.6542ZM22.9872 8.34585C22.7496 8.67581 22.6004 9.06187 22.5516 9.46574C22.5028 9.86956 22.5558 10.2802 22.7063 10.658C22.8569 11.0359 23.1009 11.37 23.4173 11.6254C23.7338 11.8809 24.1116 12.0485 24.514 12.1085L22.9872 8.34585ZM15 18C16.0374 18 17.0261 17.5711 17.7503 16.8179C18.4736 16.0657 18.875 15.0516 18.875 14C18.875 12.9484 18.4736 11.9343 17.7503 11.1821C17.0261 10.4289 16.0374 10 15 10C13.9626 10 12.9739 10.4289 12.2497 11.1821C11.5264 11.9343 11.125 12.9484 11.125 14C11.125 15.0516 11.5264 16.0657 12.2497 16.8179C12.9739 17.5711 13.9626 18 15 18Z" stroke="#F2F2F2" stroke-width="1.5"/>
</svg>
