<svg width="29" height="28" viewBox="0 0 29 28" fill="none" xmlns="http://www.w3.org/2000/svg">
<path fill-rule="evenodd" clip-rule="evenodd" d="M14.2194 1C13.3556 1 12.6556 1.728 12.6556 2.625L12.4681 3.99C12.4296 4.26922 12.3219 4.53323 12.1556 4.75605C11.9893 4.97888 11.7701 5.15284 11.5195 5.26083C11.269 5.36882 10.9957 5.40713 10.7266 5.37197C10.4575 5.33682 10.2018 5.22942 9.98472 5.06033L8.92361 4.23267C8.77852 4.08177 8.60627 3.96207 8.4167 3.88041C8.22712 3.79874 8.02394 3.75671 7.81875 3.75671C7.61356 3.75671 7.41037 3.79874 7.2208 3.88041C7.03123 3.96207 6.85898 4.08177 6.71389 4.23267L5.60833 5.38244C4.99722 6.018 4.99722 7.045 5.60833 7.67911L6.40417 8.78411C6.56673 9.00979 6.67002 9.27558 6.70389 9.55535C6.73777 9.83512 6.70106 10.1192 6.59737 10.3798C6.49369 10.6403 6.32659 10.8683 6.11252 11.0414C5.89844 11.2144 5.64476 11.3266 5.37639 11.3668L4.0625 11.5632C3.2 11.5632 2.5 12.2898 2.5 13.1868V14.8132C2.5 15.7088 3.2 16.4368 4.0625 16.4368L5.375 16.6332C5.64349 16.6732 5.89734 16.7852 6.11159 16.9581C6.32584 17.1311 6.49311 17.3591 6.59695 17.6197C6.70079 17.8803 6.73762 18.1645 6.70382 18.4443C6.67002 18.7242 6.56675 18.9901 6.40417 19.2159L5.60833 20.3194C4.99722 20.955 4.99722 21.9834 5.60833 22.6176L6.71389 23.7673C7.325 24.4029 8.3125 24.4029 8.92222 23.7673L9.98472 22.9397C10.2017 22.7706 10.4573 22.6632 10.7263 22.628C10.9953 22.5927 11.2685 22.6309 11.519 22.7387C11.7696 22.8466 11.9888 23.0203 12.1552 23.243C12.3216 23.4656 12.4294 23.7295 12.4681 24.0086L12.6569 25.375C12.6569 26.272 13.3556 27 14.2181 27H15.7819C16.6431 27 17.3431 26.272 17.3431 25.375L17.5319 24.01C17.5704 23.7308 17.6781 23.4668 17.8444 23.2439C18.0107 23.0211 18.2299 22.8472 18.4805 22.7392C18.731 22.6312 19.0043 22.5929 19.2734 22.628C19.5425 22.6632 19.7982 22.7706 20.0153 22.9397L21.0764 23.7673C21.6875 24.4029 22.6764 24.4029 23.2861 23.7673L24.3917 22.6176C25.0014 21.982 25.0014 20.955 24.3917 20.3209L23.5958 19.2159C23.4333 18.9902 23.33 18.7244 23.2961 18.4446C23.2622 18.1649 23.2989 17.8808 23.4026 17.6202C23.5063 17.3597 23.6734 17.1317 23.8875 16.9586C24.1016 16.7856 24.3552 16.6734 24.6236 16.6332L25.9375 16.4368C26.8 16.4368 27.5 15.7102 27.5 14.8132V13.1868C27.5 12.2912 26.8 11.5632 25.9375 11.5632L24.625 11.3668C24.3565 11.3268 24.1027 11.2148 23.8884 11.0419C23.6742 10.8689 23.5069 10.6409 23.403 10.3803C23.2992 10.1197 23.2624 9.83554 23.2962 9.55567C23.33 9.27579 23.4333 9.00989 23.5958 8.78411L24.3917 7.68056C25.0014 7.045 25.0014 6.01656 24.3917 5.38244L23.2861 4.23267C22.9931 3.92836 22.596 3.75743 22.1819 3.75743C21.7679 3.75743 21.3707 3.92836 21.0778 4.23267L20.0153 5.06033C19.7983 5.22939 19.5427 5.33682 19.2737 5.37205C19.0047 5.40728 18.7315 5.3691 18.481 5.26127C18.2304 5.15344 18.0112 4.97966 17.8448 4.75702C17.6784 4.53438 17.5706 4.27055 17.5319 3.99144L17.3431 2.625C17.3431 1.728 16.6444 1 15.7819 1H14.2194ZM15 17.25C15.8288 17.25 16.6237 16.9076 17.2097 16.2981C17.7958 15.6886 18.125 14.862 18.125 14C18.125 13.138 17.7958 12.3114 17.2097 11.7019C16.6237 11.0924 15.8288 10.75 15 10.75C14.1712 10.75 13.3763 11.0924 12.7903 11.7019C12.2042 12.3114 11.875 13.138 11.875 14C11.875 14.862 12.2042 15.6886 12.7903 16.2981C13.3763 16.9076 14.1712 17.25 15 17.25Z" fill="#F2F2F2"/>
</svg>
